<svg xmlns="http://www.w3.org/2000/svg" width="54" height="54" fill="none">
  <circle cx="27" cy="27" r="27" fill="#EE2A64" />
  <path fill="#fff" stroke="#fff" stroke-width=".459" d="M25.927 19.842c-2.031.746-3.486 2.692-3.486 4.977 0 2.286 1.455 4.233 3.486 4.98v3.264c-3.134.812-5.455 3.663-5.455 7.047a7.286 7.286 0 0 0 7.28 7.28c2.15 0 4.18-.944 5.568-2.593a1.823 1.823 0 1 0-2.788-2.35 3.63 3.63 0 1 1-2.78-5.969 1.824 1.824 0 0 0 1.824-1.824V29.8a5.313 5.313 0 0 0 3.482-4.98 5.309 5.309 0 0 0-3.482-4.978v-5.948a4.27 4.27 0 0 0 .801-2.484c0-2.37-1.928-4.3-4.3-4.3h-8.044a1.825 1.825 0 0 0 0 3.648h8.044a.652.652 0 0 1 0 1.304h-8.044a1.825 1.825 0 0 0 0 3.649h7.894v4.132Zm3.485 4.977c0 .916-.746 1.661-1.66 1.661a1.664 1.664 0 0 1-1.662-1.66 1.662 1.662 0 0 1 3.322 0Z" />
</svg>