<svg xmlns="http://www.w3.org/2000/svg" width="124" height="26">
  <path fill="#fff"
    d="M6.9 25V5.48H.85V1.16h16.96v4.32h-5.95V25H6.9Zm18.48.38a9.3 9.3 0 0 1-8.13-4.42 8.96 8.96 0 0 1-1.25-4.7c0-1.77.42-3.33 1.25-4.7a9.3 9.3 0 0 1 8.13-4.42c1.73 0 3.3.4 4.7 1.19a9.05 9.05 0 0 1 3.36 3.23 8.69 8.69 0 0 1 1.28 4.7 8.8 8.8 0 0 1-1.28 4.7 9.05 9.05 0 0 1-3.36 3.24 9.45 9.45 0 0 1-4.7 1.18Zm0-4.32a4.16 4.16 0 0 0 3.8-2.3c.39-.73.58-1.56.58-2.5a5.1 5.1 0 0 0-.57-2.46 4.08 4.08 0 0 0-1.54-1.7 4 4 0 0 0-2.27-.64 4.3 4.3 0 0 0-3.87 2.34 5.3 5.3 0 0 0-.55 2.46c0 .94.18 1.77.55 2.5.38.73.9 1.3 1.56 1.7.67.4 1.43.6 2.3.6ZM40.88 25l-6-17.47h4.96l4.22 12.6-1.72-.03 4.7-12.57h4.16l4.67 12.57-1.73.04 4.23-12.61h4.99L57.3 25h-4.16l-4.86-13.5h1.66L45.04 25H40.9Zm23.98 0V1.16h4.96v10.3h9.28V1.16h4.96V25H79.1v-9.22h-9.28V25h-4.96Zm28.4.38c-1.41 0-2.62-.3-3.62-.9a5.95 5.95 0 0 1-2.24-2.55 8.86 8.86 0 0 1-.77-3.81V7.52h4.8v10.22a4 4 0 0 0 .38 1.76c.28.49.67.87 1.16 1.15.49.28 1.04.41 1.66.41.64 0 1.2-.13 1.66-.41.5-.28.87-.66 1.12-1.15.28-.52.42-1.1.42-1.76V7.53h4.8V25h-4.48v-3.46l.26.77a4.4 4.4 0 0 1-1.99 2.34c-.9.49-1.95.73-3.17.73Zm21.71 0c-1.2 0-2.3-.2-3.33-.64a5.9 5.9 0 0 1-2.43-1.95l.45-.99V25h-4.48V.78h4.8v10.08l-.74-.96a5.65 5.65 0 0 1 2.34-2.02c1-.5 2.14-.74 3.42-.74 1.67 0 3.17.4 4.52 1.22a9.04 9.04 0 0 1 4.38 7.9 9.15 9.15 0 0 1-4.35 7.9 8.69 8.69 0 0 1-4.58 1.22Zm-.58-4.32a4.23 4.23 0 0 0 3.97-2.3c.39-.73.58-1.56.58-2.5 0-.93-.2-1.76-.58-2.46a4.37 4.37 0 0 0-3.97-2.34c-.85 0-1.62.2-2.3.61a4.3 4.3 0 0 0-1.57 1.7 5.5 5.5 0 0 0-.54 2.5c0 .93.18 1.76.54 2.49.39.73.9 1.3 1.57 1.7.68.4 1.45.6 2.3.6Z" />
</svg>