<svg xmlns="http://www.w3.org/2000/svg" width="19" height="20" viewBox="0 0 19 20" fill="none">
    <g clipPath="url(#clip0_4287_487)">
        <path d="M9.50043 0.765625C13.136 0.765625 16.0938 3.72378 16.0938 7.35947C16.0938 10.8591 10.1115 19.0356 9.8568 19.3818L9.61907 19.7054C9.59127 19.7434 9.547 19.7656 9.50043 19.7656C9.45313 19.7656 9.40915 19.7434 9.38106 19.7054L9.14349 19.3818C8.88862 19.0356 2.90653 10.8591 2.90653 7.35947C2.90653 3.72378 5.86473 0.765625 9.50043 0.765625ZM9.50043 4.99757C8.19778 4.99757 7.13852 6.05687 7.13852 7.35947C7.13852 8.6614 8.19783 9.72138 9.50043 9.72138C10.8023 9.72138 11.8623 8.6614 11.8623 7.35947C11.8623 6.05687 10.8024 4.99757 9.50043 4.99757Z" fill="#93A1FF"/>
    </g>
    <defs>
        <clipPath id="clip0_4287_487">
            <rect width="19" height="19" fill="white" transform="matrix(-1 0 0 1 19 0.765625)"/>
        </clipPath>
    </defs>
</svg>