<svg width="19" height="20" viewBox="0 0 19 20" fill="none" xmlns="http://www.w3.org/2000/svg">
<mask id="path-1-inside-1_0_613" fill="white">
<path d="M18.275 12.355L17.0149 11.3925L18.2264 10.7853C18.3479 10.7243 18.4324 10.5753 18.4437 10.4025C18.4549 10.2296 18.3907 10.0635 18.2787 9.97575L17.2337 9.15521L18.2266 8.65718C18.3481 8.59619 18.4326 8.4472 18.4438 8.27459C18.4549 8.10175 18.391 7.93589 18.2792 7.84789L17.2174 7.0116L18.2267 6.50546C18.3405 6.44829 18.4225 6.31371 18.4411 6.15325C18.4598 5.99279 18.4125 5.8312 18.3171 5.7306L12.9776 0.096662C12.888 0.00214037 12.7686 -0.0250909 12.6607 0.0239704L11.4404 0.579398L11.4388 0.580073L0.648284 5.49025C0.539403 5.53999 0.456943 5.66016 0.429681 5.8096C0.402418 5.95903 0.434056 6.11657 0.513487 6.22752L1.55131 7.67708L0.648116 8.08847C0.537384 8.13911 0.454082 8.26289 0.428334 8.4157C0.402587 8.56828 0.438095 8.72807 0.521901 8.83722L1.59371 10.2319L0.648284 10.6624C0.537384 10.713 0.45425 10.8366 0.428334 10.9894C0.402587 11.1422 0.438095 11.302 0.521901 11.4111L1.48433 12.6635L0.648284 13.0439C0.537384 13.0945 0.454082 13.2181 0.428334 13.3709C0.402587 13.5237 0.438095 13.6835 0.521901 13.7926L5.19335 19.8726C5.25746 19.9559 5.34211 20 5.42827 20C5.47034 20 5.51292 19.9894 5.55348 19.9676L18.2335 13.1629C18.3533 13.0986 18.4351 12.9482 18.4438 12.7758C18.4529 12.6044 18.3873 12.4405 18.275 12.355ZM17.3288 10.2737L14.3955 11.7442V10.5784L16.422 9.56188L17.3288 10.2737ZM6.98542 11.1809C6.65911 10.4643 6.06927 10.0059 5.4281 10.0059C5.0705 10.0059 4.72686 10.1445 4.43303 10.4016L2.39711 7.55735C2.66199 7.08654 2.80705 6.51896 2.80705 5.91672C2.80705 5.76684 2.79797 5.61808 2.77996 5.47134L5.03869 4.44376L6.08728 5.55011C5.75862 6.11229 5.63459 6.6936 5.74347 7.22202C5.9407 8.18164 6.82774 8.73009 8.06565 8.73009C8.36099 8.72987 8.67737 8.69678 9.00805 8.6322L9.99387 9.67261L6.98542 11.1809ZM6.33786 11.5057L5.5178 11.9168L4.9118 11.0702C5.07033 10.9631 5.24636 10.9061 5.4281 10.9061C5.78874 10.9061 6.12346 11.1359 6.33786 11.5057ZM8.5318 2.85377L13.3831 7.97257L10.7305 9.30285L5.79783 4.09763L8.5318 2.85377ZM11.372 1.5613C11.6607 2.21102 12.1871 2.62489 12.7691 2.62489C13.1551 2.62489 13.5195 2.44395 13.8087 2.12078L16.1484 4.58937C15.9542 5.04217 15.8516 5.55079 15.8517 6.08393C15.8517 6.29593 15.8699 6.50478 15.9024 6.70935L14.1197 7.60348L12.776 6.18566C13.1056 5.62235 13.2302 5.04015 13.1213 4.51127C12.8771 3.3221 11.5726 2.76802 9.85452 3.10313L9.2911 2.50854L11.372 1.5613ZM12.2494 5.62956L10.6192 3.90949C11.6754 3.86155 12.3691 4.24661 12.4722 4.74938C12.5222 4.99221 12.4411 5.30256 12.2494 5.62956ZM6.61368 6.10532L8.24218 7.82404C7.1877 7.87062 6.49537 7.48511 6.39221 6.98279C6.34257 6.74086 6.42318 6.43164 6.61368 6.10532ZM13.7226 8.76385V11.0369L11.0086 12.3579V11.9852C11.0086 11.9825 11.0086 11.9778 11.0086 11.9778V10.125L13.7226 8.76385ZM11.0086 13.3157L13.7226 11.9949V12.3737V12.3795V14.6143L11.0086 16.0708V13.3157ZM14.3957 9.6168V8.42627L16.4067 7.41782L17.3303 8.14518L14.3957 9.6168ZM16.5425 6.38798C16.5318 6.28783 16.5249 6.18633 16.5249 6.08348C16.5249 5.75581 16.5806 5.44186 16.6854 5.1556L17.4311 5.94238L16.5425 6.38798ZM12.7043 0.955234L13.2601 1.54172C13.1139 1.65942 12.9454 1.72469 12.7691 1.72469C12.4784 1.72469 12.2129 1.54689 12.0355 1.25973L12.7043 0.955234ZM2.12482 5.76909C2.12785 5.81837 2.13374 5.86676 2.13374 5.91627C2.13374 6.26915 2.05919 6.60425 1.92254 6.89412L1.36484 6.11499L2.12482 5.76909ZM2.06474 8.39454L4.15788 11.3186L5.18493 12.7538C5.24955 12.844 5.3379 12.8926 5.4281 12.8926C5.46765 12.8926 5.5077 12.8832 5.54624 12.8641L6.93426 12.168L6.9378 12.1666L6.94082 12.1646L10.3355 10.4623V11.6526L5.50989 14.0728L1.38487 8.70421L2.06474 8.39454ZM2.13509 10.9367L5.19351 14.9172C5.25746 15.0005 5.34211 15.0446 5.42844 15.0446C5.46799 15.0446 5.50804 15.0351 5.54658 15.016L10.3357 12.6143V14.2265L5.50989 16.647L1.38487 11.2784L2.13509 10.9367ZM5.50602 19.0237L1.38504 13.6603L2.02587 13.3686L5.19351 17.4914C5.25746 17.5744 5.34211 17.6187 5.42844 17.6187C5.46799 17.6187 5.50804 17.6093 5.54658 17.5901L10.3357 15.1882V16.4318L5.50602 19.0237ZM14.3957 14.2529V12.7056L16.2733 11.764C16.3016 11.8468 16.3482 11.9193 16.4118 11.9679L17.3368 12.6746L14.3957 14.2529Z"/>
</mask>
<path d="M18.275 12.355L17.0149 11.3925L18.2264 10.7853C18.3479 10.7243 18.4324 10.5753 18.4437 10.4025C18.4549 10.2296 18.3907 10.0635 18.2787 9.97575L17.2337 9.15521L18.2266 8.65718C18.3481 8.59619 18.4326 8.4472 18.4438 8.27459C18.4549 8.10175 18.391 7.93589 18.2792 7.84789L17.2174 7.0116L18.2267 6.50546C18.3405 6.44829 18.4225 6.31371 18.4411 6.15325C18.4598 5.99279 18.4125 5.8312 18.3171 5.7306L12.9776 0.096662C12.888 0.00214037 12.7686 -0.0250909 12.6607 0.0239704L11.4404 0.579398L11.4388 0.580073L0.648284 5.49025C0.539403 5.53999 0.456943 5.66016 0.429681 5.8096C0.402418 5.95903 0.434056 6.11657 0.513487 6.22752L1.55131 7.67708L0.648116 8.08847C0.537384 8.13911 0.454082 8.26289 0.428334 8.4157C0.402587 8.56828 0.438095 8.72807 0.521901 8.83722L1.59371 10.2319L0.648284 10.6624C0.537384 10.713 0.45425 10.8366 0.428334 10.9894C0.402587 11.1422 0.438095 11.302 0.521901 11.4111L1.48433 12.6635L0.648284 13.0439C0.537384 13.0945 0.454082 13.2181 0.428334 13.3709C0.402587 13.5237 0.438095 13.6835 0.521901 13.7926L5.19335 19.8726C5.25746 19.9559 5.34211 20 5.42827 20C5.47034 20 5.51292 19.9894 5.55348 19.9676L18.2335 13.1629C18.3533 13.0986 18.4351 12.9482 18.4438 12.7758C18.4529 12.6044 18.3873 12.4405 18.275 12.355ZM17.3288 10.2737L14.3955 11.7442V10.5784L16.422 9.56188L17.3288 10.2737ZM6.98542 11.1809C6.65911 10.4643 6.06927 10.0059 5.4281 10.0059C5.0705 10.0059 4.72686 10.1445 4.43303 10.4016L2.39711 7.55735C2.66199 7.08654 2.80705 6.51896 2.80705 5.91672C2.80705 5.76684 2.79797 5.61808 2.77996 5.47134L5.03869 4.44376L6.08728 5.55011C5.75862 6.11229 5.63459 6.6936 5.74347 7.22202C5.9407 8.18164 6.82774 8.73009 8.06565 8.73009C8.36099 8.72987 8.67737 8.69678 9.00805 8.6322L9.99387 9.67261L6.98542 11.1809ZM6.33786 11.5057L5.5178 11.9168L4.9118 11.0702C5.07033 10.9631 5.24636 10.9061 5.4281 10.9061C5.78874 10.9061 6.12346 11.1359 6.33786 11.5057ZM8.5318 2.85377L13.3831 7.97257L10.7305 9.30285L5.79783 4.09763L8.5318 2.85377ZM11.372 1.5613C11.6607 2.21102 12.1871 2.62489 12.7691 2.62489C13.1551 2.62489 13.5195 2.44395 13.8087 2.12078L16.1484 4.58937C15.9542 5.04217 15.8516 5.55079 15.8517 6.08393C15.8517 6.29593 15.8699 6.50478 15.9024 6.70935L14.1197 7.60348L12.776 6.18566C13.1056 5.62235 13.2302 5.04015 13.1213 4.51127C12.8771 3.3221 11.5726 2.76802 9.85452 3.10313L9.2911 2.50854L11.372 1.5613ZM12.2494 5.62956L10.6192 3.90949C11.6754 3.86155 12.3691 4.24661 12.4722 4.74938C12.5222 4.99221 12.4411 5.30256 12.2494 5.62956ZM6.61368 6.10532L8.24218 7.82404C7.1877 7.87062 6.49537 7.48511 6.39221 6.98279C6.34257 6.74086 6.42318 6.43164 6.61368 6.10532ZM13.7226 8.76385V11.0369L11.0086 12.3579V11.9852C11.0086 11.9825 11.0086 11.9778 11.0086 11.9778V10.125L13.7226 8.76385ZM11.0086 13.3157L13.7226 11.9949V12.3737V12.3795V14.6143L11.0086 16.0708V13.3157ZM14.3957 9.6168V8.42627L16.4067 7.41782L17.3303 8.14518L14.3957 9.6168ZM16.5425 6.38798C16.5318 6.28783 16.5249 6.18633 16.5249 6.08348C16.5249 5.75581 16.5806 5.44186 16.6854 5.1556L17.4311 5.94238L16.5425 6.38798ZM12.7043 0.955234L13.2601 1.54172C13.1139 1.65942 12.9454 1.72469 12.7691 1.72469C12.4784 1.72469 12.2129 1.54689 12.0355 1.25973L12.7043 0.955234ZM2.12482 5.76909C2.12785 5.81837 2.13374 5.86676 2.13374 5.91627C2.13374 6.26915 2.05919 6.60425 1.92254 6.89412L1.36484 6.11499L2.12482 5.76909ZM2.06474 8.39454L4.15788 11.3186L5.18493 12.7538C5.24955 12.844 5.3379 12.8926 5.4281 12.8926C5.46765 12.8926 5.5077 12.8832 5.54624 12.8641L6.93426 12.168L6.9378 12.1666L6.94082 12.1646L10.3355 10.4623V11.6526L5.50989 14.0728L1.38487 8.70421L2.06474 8.39454ZM2.13509 10.9367L5.19351 14.9172C5.25746 15.0005 5.34211 15.0446 5.42844 15.0446C5.46799 15.0446 5.50804 15.0351 5.54658 15.016L10.3357 12.6143V14.2265L5.50989 16.647L1.38487 11.2784L2.13509 10.9367ZM5.50602 19.0237L1.38504 13.6603L2.02587 13.3686L5.19351 17.4914C5.25746 17.5744 5.34211 17.6187 5.42844 17.6187C5.46799 17.6187 5.50804 17.6093 5.54658 17.5901L10.3357 15.1882V16.4318L5.50602 19.0237ZM14.3957 14.2529V12.7056L16.2733 11.764C16.3016 11.8468 16.3482 11.9193 16.4118 11.9679L17.3368 12.6746L14.3957 14.2529Z" fill="#D3F2EB" stroke="#D3F2EB" stroke-width="6" mask="url(#path-1-inside-1_0_613)"/>
</svg>
