<svg xmlns="http://www.w3.org/2000/svg" width="54" height="54">
  <circle cx="27" cy="27" r="27" fill="#EE2A64" />
  <mask id="a" width="54" height="54" x="0" y="0" maskUnits="userSpaceOnUse" style="mask-type:alpha">
    <circle cx="27" cy="27" r="27" fill="#EE2A64" />
  </mask>
  <g mask="url(#a)">
    <path fill="#fff" stroke="#fff" stroke-width=".459" d="M23.698-9.279c-3.907 1.435-6.707 5.18-6.707 9.577 0 4.399 2.8 8.144 6.707 9.583v6.28c-6.03 1.561-10.495 7.048-10.495 13.558 0 7.727 6.28 14.008 14.005 14.008a13.98 13.98 0 0 0 10.715-4.99 3.507 3.507 0 0 0-.422-4.944 3.506 3.506 0 0 0-4.943.422 6.985 6.985 0 0 1-12.334-4.498c0-3.849 3.131-6.986 6.984-6.986a3.51 3.51 0 0 0 3.511-3.51V9.88c3.906-1.439 6.7-5.184 6.7-9.583 0-4.396-2.795-8.144-6.7-9.577v-11.445a8.216 8.216 0 0 0 1.542-4.778c0-4.56-3.71-8.273-8.273-8.273H8.51a3.51 3.51 0 0 0 0 7.019h15.476a1.255 1.255 0 0 1 0 2.508H8.51A3.512 3.512 0 0 0 5-20.74c0 1.94 1.571 3.51 3.51 3.51h15.188v7.95Z" />
  </g>
</svg>